PathFileType	4	(X/Y/Z)	T1_P1_Vision_Movement_2_0-687.trc
DataRate	CameraRate	NumFrames	NumMarkers	Units	OrigDataRate	OrigDataStartFrame	OrigNumFrames
60	60	6	27	m	60	429	687
Frame#	Time	RHip			RKnee			RAnkle			RBigToe			RSmallToe			RHeel			LHip			LKnee			LAnkle			LBigToe			LSmallToe			LHeel			Neck			Head			Nose			RShoulder			RElbow			RWrist			RThumb			RIndex			RPinky			LShoulder			LElbow			LWrist			LThumb			LIndex			LPinky		
		X1	Y1	Z1	X2	Y2	Z2	X3	Y3	Z3	X4	Y4	Z4	X5	Y5	Z5	X6	Y6	Z6	X7	Y7	Z7	X8	Y8	Z8	X9	Y9	Z9	X10	Y10	Z10	X11	Y11	Z11	X12	Y12	Z12	X13	Y13	Z13	X14	Y14	Z14	X15	Y15	Z15	X16	Y16	Z16	X17	Y17	Z17	X18	Y18	Z18	X19	Y19	Z19	X20	Y20	Z20	X21	Y21	Z21	X22	Y22	Z22	X23	Y23	Z23	X24	Y24	Z24	X25	Y25	Z25	X26	Y26	Z26	X27	Y27	Z27
430	7.166666666666667	-114.81492557121601	3938.4974911480144	-679.836427420502	246.24633975886198	4080.70623625236	-663.6922609922835	596.8062662398295	4261.890876640227	-683.0017452482825	686.0126504863633	4201.165819046629	-650.8933756078775	676.9891225638099	4165.9633125280625	-703.5506818320262	638.1501188681247	4314.792899889922	-697.933702187544	-140.1609419924783	4045.090637205263	-504.51862699438277	211.10154737522817	4163.8923141228115	-496.7146078891673	551.7843314671752	4330.213424476584	-515.169930803249	642.0159981285985	4238.383009677915	-416.11032837595974	606.9474648983896	4257.090827000854	-375.0978590138199	609.4011157330764	4397.10843276136	-543.1360121598182	-708.0814310531193	3809.579477122521	-606.1102098782657	-946.6858043652244	3673.181748111302	-553.9940630608957	-799.3762417568134	3625.8120215718977	-479.73720788968427	-592.3720686695004	3746.489727696914	-724.7289815071312	-364.30934340484464	3695.087651302072	-781.044937283639	-499.42806402515293	3534.2864408844907	-664.8681928317643	-612.9416065128189	3462.6882619310936	-603.7007114554306	-612.1774619369686	3381.013075658587	-557.4682618800377	-552.7211537407854	3463.0568756338835	-604.8596044973353	-641.7573809300599	3925.3522246435	-477.2566896499377	-423.87530225866186	4082.1123185198103	-426.7187063390031	-157.59276465024774	4094.6073158039467	-366.33898868447477	-37.128401066936895	4049.875419796873	-362.13299774917346	-1.4297844782837739	4122.413826467498	-365.42024672332127	-21.823205084181076	4155.425944080767	-342.2215365214195
431	7.183333333333334	-114.54720932956596	3939.083656190153	-680.2795063576043	246.42937977257014	4081.775572797634	-664.4597714694172	597.6952890255783	4262.712861625883	-683.4108929554462	686.094526720954	4202.154189367734	-651.3861399457604	677.3860178374221	4170.302853667994	-706.8980833603637	638.1033632690429	4314.908750514034	-698.013295130332	-140.00489747247488	4044.6328161624106	-505.7173442764837	211.84980046659834	4165.120709736033	-497.2861122275032	551.4690260957603	4331.450445166909	-515.3406201608183	641.4304027310301	4235.357809285646	-414.4186158173017	607.1275802789185	4259.424373480362	-375.44233594945507	610.5973647439521	4407.002631887144	-545.2432345930579	-708.1219323894777	3809.7573335859124	-606.1479046258734	-946.7781304578533	3673.179978091233	-553.9008737157404	-797.438549225188	3624.4094786490864	-478.2773338930725	-592.0952206604957	3746.701567222358	-725.2827409846209	-363.7356245589014	3696.215970708836	-782.0815916441834	-498.00548063681117	3534.5058955356503	-664.7958346249582	-611.5927712036945	3462.6752239692205	-603.5299954767883	-610.2413996873563	3385.062210898523	-558.9525692955593	-553.0981630794861	3466.7466704741505	-608.6635162602508	-641.4601836702332	3927.044503284683	-478.4223261085894	-423.7625599068169	4082.227612297377	-426.7545348400774	-157.67934746411666	4094.4425192471954	-366.2999871076973	-38.0159456406711	4049.759009004869	-362.10735696298804	-3.084947062854682	4121.450173654682	-365.25425178503224	-23.331056560094392	4154.517299256787	-342.0453757607427
432	7.2	-114.91299278445118	3939.2899326358515	-680.4870941157558	246.47466291668445	4081.220268834451	-664.3906133107118	598.6898289072043	4263.518054142974	-684.0290447631909	688.3851575864483	4205.131059269773	-652.9296737617133	679.3055740315255	4179.493695135524	-711.2929496825086	638.3604261592486	4314.978493301749	-698.1629701094037	-139.91368495134716	4045.056253860766	-506.6520086480166	212.34016858232587	4165.752226949422	-497.75939352721616	550.8660024446752	4332.796918954346	-516.3836547833084	640.1638577445291	4229.514112158548	-410.45770684415436	607.2726701013937	4261.048395517579	-375.6421631411468	611.2559676803463	4410.967535744158	-546.7888573068171	-708.20734558977	3810.061481198584	-606.2723673769532	-946.8384168296737	3673.2444597219846	-553.8960777024417	-797.3096307023034	3623.9957922563763	-477.9394702821838	-592.9566542589574	3746.398066392425	-725.2109117464928	-363.1710819437369	3695.641159188299	-781.5313990094052	-495.30662217527436	3534.839129746827	-664.3651275285163	-610.0801624547757	3463.3620536333638	-603.516631622754	-607.9885437458505	3393.6679012880822	-562.1689063945958	-553.6398916709888	3467.1503939445506	-609.9852147658692	-641.7181319167723	3930.1533258670333	-480.6802295729424	-423.6986262199387	4082.279677880682	-426.7709080647796	-157.75852218985042	4094.2162091022487	-366.2727139261682	-38.51437192308861	4048.4651239863765	-361.75051931318865	-4.992628462050019	4119.903454238488	-364.8853749581764	-26.3592265575323	4152.677824610366	-341.596962109438
433	7.216666666666667	-115.27105188292033	3939.522616583451	-680.6960273371161	246.50591669922366	4080.768439873643	-664.2351801891842	599.2429453313955	4264.028620266945	-684.4781963541739	689.768691376525	4207.897472439012	-655.234069376657	679.8848367741508	4184.277148981542	-713.366144787331	638.663776335605	4315.166391970456	-698.4201119422917	-140.0272955853469	4045.250819529592	-505.85235293143324	212.8472040305299	4165.844365055427	-497.86771379883305	550.0269750707225	4332.819393497413	-518.2403009979801	638.4663316437707	4221.682105297932	-405.23261103670416	606.856114369061	4258.263888928927	-375.02433191459414	611.1635814044897	4407.944910751928	-547.3215024037488	-708.2607032884703	3810.22050532186	-606.3668327660193	-946.8693311972277	3673.334956469584	-553.9421244429795	-798.3638104586788	3623.939417981079	-478.0925912069192	-594.6110919194657	3745.507218541838	-724.7690670094555	-362.4439025671762	3695.1679808679637	-781.1859620272245	-492.1723390305322	3535.2136711677795	-663.7484800252945	-607.7434262070393	3464.123608633469	-603.4960817870015	-605.7361390748256	3397.6948923260807	-563.4852564639731	-553.7747705515108	3464.2295469407195	-607.9330774091283	-642.0110668096661	3932.129833056325	-482.1437983803071	-423.70650505647495	4082.276590860631	-426.7689866295554	-157.80382321988571	4094.0321737406794	-366.22691377334104	-38.27500120785885	4047.5849079023947	-361.3423478019928	-6.091702001692737	4118.73438270498	-364.56590433854853	-28.60175196897235	4151.22190649306	-341.1710333176082
434	7.233333333333333	-115.25130314322286	3939.8449530794287	-680.9545515599054	246.46523939836734	4080.251480674241	-663.8163018645263	599.3819511052269	4264.152837456039	-684.6474584417949	688.2648321501931	4206.053449686458	-655.9706748723528	678.202238063393	4179.486130474045	-711.4200464894597	638.7303252876927	4315.450045560521	-698.7039887859455	-140.29905764157107	4045.0356102392407	-504.0130592742177	213.62470266595986	4165.719803745839	-497.7449935874722	549.39183603561	4331.968003216507	-520.1608222856432	637.1857194783369	4215.669606268934	-401.30807668627983	606.0304677476729	4252.508101170053	-373.9088032264128	610.1242269817708	4398.496571452054	-545.949327035752	-708.2667853956716	3810.2464806205253	-606.4047323034404	-946.8703222629333	3673.416795631444	-554.0009521736654	-799.2885223343419	3623.96782507314	-478.2712117274644	-596.0109916515271	3744.674114327967	-724.369750707403	-362.16534838882524	3696.794913553883	-783.379659074031	-490.59084103494536	3535.3406800692374	-663.2574687792643	-605.386699443366	3465.1358159435895	-603.8000182575391	-604.4794596574602	3393.267924230015	-561.3849361768007	-553.4951497674905	3460.942162448643	-604.48174665816	-642.1289137268938	3932.567155659379	-482.50405467211647	-423.7494081808369	4082.261716065314	-426.76880558934914	-157.80947457307911	4093.970392930336	-366.18273090550736	-37.6420379887473	4047.44593647754	-361.08885235278194	-6.303471789574554	4118.288093948257	-364.4289720563809	-28.80696353826096	4150.895246383468	-340.9085799272889
435	7.25	-115.67401132549718	3939.949422996716	-681.2141339290602	246.22222507059814	4078.7164255809193	-662.4994160679855	599.1019886501838	4263.822153408005	-684.4465674477528	685.4068554615831	4199.028224905057	-653.6398371814104	675.7847414251786	4169.479975088879	-706.9737191654483	638.3932704115407	4315.565021782836	-698.8328391923387	-140.55549093139035	4044.7311939643996	-502.86251355649927	214.3978125525787	4165.602229698989	-497.5984282763293	549.473927764179	4331.2365076314245	-520.7977007597319	636.733619583265	4213.372417682304	-399.8228788224953	605.6260188449536	4249.882510480251	-373.4261376958868	608.4355123978513	4386.170840901891	-542.7689680876022	-708.2547018963811	3810.2126314327797	-606.4029847270014	-946.8376956928215	3673.4188896987407	-553.9992492801824	-799.6593484254183	3623.9273056784173	-478.3004504245174	-596.5993681515612	3744.2775008860795	-724.1842409088039	-362.6979175382265	3699.219364917142	-787.136446695754	-490.9665951111303	3535.212689344838	-663.049305519505	-603.6547939651498	3465.435822270588	-603.698932986552	-604.2916936967624	3383.9581525732387	-557.5616318605208	-553.0133802930558	3459.470252252192	-602.0534472007189	-642.1277462845642	3932.2989269850245	-482.3647344441608	-423.8213292926781	4082.2426048141087	-426.7778602158055	-157.7933198454971	4094.0128024754767	-366.1662053145636	-37.175390018179854	4047.691912756291	-361.04146793484455	-6.131812113960132	4118.3280704186245	-364.4427271433708	-27.847310116536494	4151.29037157349	-340.8015126195797
